version = 1
nColumns = 19
nRows = 10
inDegrees = yes
endheader 
time	r_ground_force_vx	r_ground_force_vy	r_ground_force_vz	r_ground_force_px	r_ground_force_py	r_ground_force_pz	l_ground_force_vx	l_ground_force_vy	l_ground_force_vz	l_ground_force_px	l_ground_force_py	l_ground_force_pz	r_ground_torque_x	r_ground_torque_y	r_ground_torque_z	l_ground_torque_x	l_ground_torque_y	l_ground_torque_z	
          0.00000000	       -277.59455085	        589.83014309	         44.81981061	          0.18178192	          0.00000000	          0.03720507	          0.00000000	          0.00000000	          0.00000000	          0.00000000	          0.00000000	          0.00000000	          0.00000000	         -4.43888454	          0.00000000	          0.00000000	          0.00000000	          0.00000000	
          0.00086862	       -277.59455085	        589.83014309	         44.81981061	          0.18178192	          0.00000000	          0.03720507	          0.00000000	          0.00000000	          0.00000000	          0.00000000	          0.00000000	          0.00000000	          0.00000000	         -4.43888454	          0.00000000	          0.00000000	          0.00000000	          0.00000000	
          0.00361309	       -141.83602508	        707.85145672	         23.39591554	          0.16184532	          0.00000000	          0.04031146	          0.00000000	          0.00000000	          0.00000000	          0.00000000	          0.00000000	          0.00000000	          0.00000000	         -5.22728049	          0.00000000	          0.00000000	          0.00000000	          0.00000000	
          0.00560214	       -151.35926154	        838.87790091	         15.92392550	          0.15298507	          0.00000000	          0.04187184	          0.00000000	          0.00000000	          0.00000000	          0.00000000	          0.00000000	          0.00000000	          0.00000000	         -5.28713954	          0.00000000	          0.00000000	          0.00000000	          0.00000000	
          0.00647075	       -145.70070852	        900.23731844	         12.90808816	          0.15017351	          0.00000000	          0.04241228	          0.00000000	          0.00000000	          0.00000000	          0.00000000	          0.00000000	          0.00000000	          0.00000000	         -4.88157992	          0.00000000	          0.00000000	          0.00000000	          0.00000000	
          0.00921523	       -143.13428851	       1077.05050522	          8.59388923	          0.14220736	          0.00000000	          0.04388630	          0.00000000	          0.00000000	          0.00000000	          0.00000000	          0.00000000	          0.00000000	          0.00000000	         -3.42230569	          0.00000000	          0.00000000	          0.00000000	          0.00000000	
          0.01120427	       -138.90196255	       1186.11591980	          6.29336083	          0.13768200	          0.00000000	          0.04469506	          0.00000000	          0.00000000	          0.00000000	          0.00000000	          0.00000000	          0.00000000	          0.00000000	         -2.57443810	          0.00000000	          0.00000000	          0.00000000	          0.00000000	
          0.01207289	       -134.50563416	       1228.12628079	          4.95726221	          0.13607645	          0.00000000	          0.04497987	          0.00000000	          0.00000000	          0.00000000	          0.00000000	          0.00000000	          0.00000000	          0.00000000	         -2.34645204	          0.00000000	          0.00000000	          0.00000000	          0.00000000	
          0.01481737	       -121.60676504	       1337.40031988	          0.93730445	          0.13248603	          0.00000000	          0.04562823	          0.00000000	          0.00000000	          0.00000000	          0.00000000	          0.00000000	          0.00000000	          0.00000000	         -2.16596157	          0.00000000	          0.00000000	          0.00000000	          0.00000000	
          0.01680641	       -114.11571261	       1394.16214022	         -1.10014416	          0.13108494	          0.00000000	          0.04591307	          0.00000000	          0.00000000	          0.00000000	          0.00000000	          0.00000000	          0.00000000	          0.00000000	         -2.40795457	          0.00000000	          0.00000000	          0.00000000	          0.00000000	
